<?xml version="1.0" standalone="no"?>
<!DOCTYPE svg PUBLIC "-//W3C//DTD SVG 20010904//EN"
 "http://www.w3.org/TR/2001/REC-SVG-20010904/DTD/svg10.dtd">
<svg version="1.0" xmlns="http://www.w3.org/2000/svg"
 width="2000.000000pt" height="2000.000000pt" viewBox="0 0 2000.000000 2000.000000"
 preserveAspectRatio="xMidYMid meet">
<metadata>
Created by potrace 1.11, written by Peter Selinger 2001-2013
</metadata>
<g transform="translate(0.000000,2000.000000) scale(0.100000,-0.100000)"
fill="#000000" stroke="none">
<path d="M9899 15897 c-30 -13 -94 -48 -141 -79 -113 -74 -385 -293 -518 -418
-9 -8 -60 -55 -114 -105 -126 -116 -169 -156 -496 -475 -440 -429 -551 -533
-577 -536 -40 -6 -307 106 -783 329 -41 19 -178 85 -305 147 -610 298 -885
417 -1203 521 -52 17 -102 32 -113 34 -10 2 -23 6 -27 9 -5 3 -44 13 -88 22
-43 9 -88 18 -99 20 -51 12 -217 15 -275 6 -120 -19 -241 -78 -352 -171 -274
-232 -535 -752 -708 -1416 -32 -123 -102 -399 -106 -420 -2 -11 -8 -43 -14
-71 -6 -28 -13 -64 -16 -80 -3 -16 -9 -45 -14 -64 -5 -19 -11 -51 -14 -70 -3
-19 -14 -84 -25 -145 -11 -60 -23 -128 -26 -150 -3 -22 -12 -83 -20 -135 -8
-52 -17 -115 -20 -140 -3 -25 -8 -56 -10 -70 -3 -14 -6 -45 -9 -70 -7 -71 -16
-143 -21 -167 -26 -119 -26 -735 0 -1011 2 -26 7 -78 10 -117 4 -38 8 -83 10
-100 2 -16 7 -52 10 -80 10 -84 24 -174 39 -251 2 -12 7 -39 10 -60 4 -22 11
-55 16 -74 5 -19 11 -48 13 -65 6 -41 44 -185 68 -265 11 -36 22 -72 24 -80 2
-8 13 -42 25 -75 12 -33 23 -67 25 -75 5 -22 72 -193 107 -275 217 -500 545
-957 944 -1310 43 -38 81 -72 84 -75 3 -3 25 -21 50 -40 25 -19 47 -37 50 -40
13 -13 134 -102 220 -162 272 -187 623 -370 950 -496 220 -84 598 -200 771
-237 8 -2 44 -10 80 -19 35 -8 123 -27 194 -42 72 -14 139 -28 150 -30 47 -11
486 -73 555 -79 41 -4 77 -8 80 -10 3 -1 42 -6 87 -9 45 -4 90 -9 101 -11 11
-2 60 -6 108 -9 49 -4 125 -9 169 -12 164 -11 598 -23 843 -24 l44 0 -7 -41
c-12 -71 -7 -392 9 -599 7 -80 16 -207 31 -435 2 -33 6 -91 9 -130 3 -38 8
-108 11 -155 3 -47 7 -114 10 -150 2 -36 7 -105 10 -155 4 -49 8 -108 10 -130
23 -227 27 -853 5 -828 -4 4 -44 64 -89 131 -217 328 -451 605 -733 867 -81
75 -175 157 -217 190 -14 10 -28 22 -31 25 -14 17 -259 195 -360 262 -579 382
-1219 642 -1891 768 -202 38 -204 38 -259 45 -25 3 -52 7 -60 9 -8 3 -42 7
-75 11 -33 3 -73 8 -90 10 -16 2 -61 7 -100 10 -38 3 -88 8 -110 11 -84 11
-169 14 -425 18 -260 4 -321 0 -465 -33 -280 -64 -666 -286 -879 -506 -205
-211 -259 -416 -163 -625 72 -158 308 -377 617 -573 156 -98 508 -286 670
-356 30 -13 89 -40 130 -59 263 -120 669 -275 1080 -412 334 -111 633 -202
900 -274 175 -46 295 -78 310 -81 12 -3 86 -21 215 -52 113 -27 444 -102 475
-107 19 -3 46 -8 60 -11 14 -3 59 -12 100 -20 41 -8 85 -16 96 -19 12 -2 37
-7 55 -10 19 -3 59 -10 89 -15 30 -6 93 -17 140 -25 47 -8 107 -17 134 -21 27
-3 52 -8 55 -9 3 -2 30 -7 60 -10 29 -4 85 -11 125 -17 39 -5 89 -12 111 -15
22 -2 56 -6 75 -9 19 -2 67 -7 105 -10 39 -4 81 -8 95 -10 14 -2 61 -7 105
-10 44 -4 100 -8 125 -10 303 -26 958 -26 1325 0 22 1 87 6 145 9 58 4 119 9
135 10 17 2 66 6 110 10 44 4 97 9 118 11 20 3 55 7 77 10 22 3 59 7 83 10 99
13 191 26 337 49 52 8 114 18 137 20 23 3 61 10 85 15 24 5 61 12 83 15 23 4
52 9 65 12 14 2 70 13 125 24 137 26 140 27 280 60 68 16 134 32 147 34 126
28 542 148 760 220 178 59 482 170 553 201 17 7 77 32 135 55 153 62 335 142
500 222 80 39 159 77 175 84 30 14 40 20 80 42 11 6 36 19 55 29 53 26 288
161 350 201 79 50 351 232 380 254 383 288 629 537 765 778 91 161 128 324 91
401 -46 95 -178 244 -332 373 -184 153 -363 253 -584 326 -58 20 -63 21 -205
46 -130 24 -518 24 -665 0 -14 -2 -50 -7 -80 -11 -94 -11 -253 -38 -430 -74
-324 -66 -865 -252 -1280 -441 -201 -91 -488 -237 -582 -297 -21 -12 -40 -23
-43 -23 -3 0 -22 -11 -43 -23 -20 -13 -64 -39 -97 -57 -135 -74 -434 -268
-585 -379 -363 -267 -677 -575 -846 -832 -57 -87 -131 -249 -140 -307 -3 -23
-9 -40 -12 -37 -3 3 -7 89 -8 193 -1 103 -5 351 -8 552 -3 201 -8 692 -11
1091 l-6 726 513 1 c282 0 547 3 588 6 91 7 176 14 250 22 30 3 78 7 105 9 62
5 162 15 195 20 14 2 50 7 80 10 48 5 123 16 210 30 56 9 320 55 395 69 121
22 222 44 301 66 39 10 81 21 95 24 13 2 48 12 78 21 30 9 62 18 70 20 38 8
255 77 358 114 342 123 629 264 919 453 71 46 139 92 149 101 11 8 66 52 123
97 180 141 397 370 550 578 243 330 428 765 518 1217 2 11 6 31 9 45 6 26 7
35 21 110 4 25 8 47 9 50 1 3 5 32 9 65 4 32 10 68 12 78 1 10 6 53 9 95 4 42
8 93 10 112 26 238 26 1213 0 1565 -2 33 -7 103 -10 155 -3 52 -8 113 -10 135
-2 22 -9 90 -15 150 -6 61 -12 121 -15 135 -2 14 -6 46 -9 73 -3 26 -9 68 -12
95 -3 26 -7 58 -9 72 -2 14 -7 45 -10 70 -3 25 -8 56 -10 70 -39 245 -42 263
-65 395 -26 141 -40 212 -56 285 -3 14 -7 38 -10 53 -2 16 -6 32 -9 37 -3 4
-7 23 -10 42 -5 28 -33 140 -89 348 -20 72 -92 294 -121 370 -47 126 -42 114
-123 280 -161 331 -336 532 -561 645 -97 49 -134 46 -366 -35 -155 -54 -471
-181 -740 -298 -477 -207 -539 -234 -601 -263 -36 -16 -66 -29 -69 -29 -2 0
-32 -13 -67 -29 -35 -16 -94 -44 -133 -61 -182 -85 -241 -113 -395 -189 -201
-100 -280 -143 -342 -187 l-48 -34 -32 29 c-18 15 -44 36 -56 47 -13 10 -33
27 -45 38 -52 44 -274 212 -412 310 -82 59 -159 114 -170 122 -268 195 -850
573 -1060 689 -139 77 -165 91 -230 123 -216 107 -407 176 -515 188 -33 3 -60
-2 -101 -19z"/>
</g>
</svg>
